<svg width="69" height="24" viewBox="0 0 69 24" fill="none" xmlns="http://www.w3.org/2000/svg">
<path d="M0.25184 23.5789C0.335787 15.6619 0.25184 6.79829 0 0.344218C1.17526 0.172109 3.10603 0 4.36523 0C4.44918 0 4.53312 0 4.53312 0C7.1355 0.0860544 9.15018 0.774492 10.3255 2.06531C11.2488 3.09796 11.7526 4.47484 11.6686 6.10987C11.5007 10.6708 5.96022 11.6174 5.96022 11.6174H6.12812C6.12812 11.6174 12.1723 12.2197 12.5081 17.1248C12.6759 19.5344 11.6686 20.9973 10.1575 22.03C8.73048 22.9766 6.71573 23.4069 3.9455 23.4069C3.86155 23.4069 3.69365 23.4069 3.60971 23.4069H0.25184V23.5789Z" fill="#4C4C4C"/>
<path d="M61.1579 16.9473C61.2475 16.3947 61.606 15.1973 61.7853 14.7368L67.7895 16.0263C67.7 16.4868 67.4314 17.4999 67.1623 18.2368C67.0727 18.6052 66.9832 18.8815 66.8937 19.1579L61.1579 16.9473Z" fill="#4C4C4C"/>
<path d="M44.2105 23.5789H49.558C49.1466 21.247 49.0643 19.5196 49.0643 19.4333V19.2605L58.5253 23.5789L60.7465 20.6424C56.9622 18.1377 51.2033 14.3376 50.8743 14.0784L50.792 13.9921L50.8743 13.9057C50.8743 13.9057 56.9622 9.15543 61.1579 5.78709L59.1834 2.24599L48.8998 5.70072V0.000410521H44.2105C44.2105 -0.0859579 44.6218 13.4738 44.2105 23.5789Z" fill="#4C4C4C"/>
<path d="M23.7404 0C24.7835 7.49475 26.3483 17.6 28 23.4947L23.1318 23.5789C22.2625 20.379 21.2194 15.5789 21.2194 15.4947V15.4105L18.7853 15.8316L17.3075 22.9895H12.5263C13.9172 16.5053 15.8297 7.24209 16.7859 0H23.7404Z" fill="#4C4C4C"/>
<path d="M39.8526 23.5789C37.3263 21.0436 34.2105 15.4657 33.621 14.3671H33.2842C33.2842 15.3812 33.2842 15.8883 33.3684 16.987C33.4526 18.7618 33.4526 20.7055 33.4526 23.0719H29.1579C29.1579 15.8883 28.9894 8.53572 28.7368 0.169025C29.9158 0.0845122 31.4315 0 33.0315 0C36.6526 0 41.3684 1.18317 41.3684 6.84552C41.3684 9.21187 40.1894 11.1556 38.5052 12.4233C38.421 12.5078 38.3368 12.5923 38.2526 12.6768H38.1684V12.7614C38.9263 14.3671 41.0316 18.5082 43.4737 21.3816L39.8526 23.5789Z" fill="#4C4C4C"/>
<path d="M61.1678 12.6316C60.8342 12.2272 60.2502 11.1758 60 10.6097V10.5289H60.0834C61.5849 9.72011 63.0864 8.83054 64.5044 7.86006C65.5054 7.21308 66.5063 6.56611 67.5073 6H67.5906V6.08086C67.8411 6.48524 68.1744 7.37481 68.5082 8.10271C68.6755 8.42616 68.7588 8.74968 68.8421 8.91141V8.99227H68.7588C67.3407 9.72011 65.8392 10.448 64.3378 11.1758C63.3366 11.5802 62.2522 12.0655 61.1678 12.6316Z" fill="#4C4C4C"/>
</svg>
